<svg width="17" height="16" viewBox="0 0 17 16" fill="none" xmlns="http://www.w3.org/2000/svg">
<path d="M8.0064 0C3.59119 0 0 3.58832 0 8C0 12.4117 3.59119 16 8.0064 16C12.4216 16 16.0128 12.4117 16.0128 8C16.0128 3.58832 12.4216 0 8.0064 0ZM15.2404 7.61905H12.7036C12.6321 4.88889 11.7912 2.55746 10.5303 1.21625C13.1713 2.19939 15.0876 4.68064 15.2404 7.61905ZM7.6282 0.797715C7.6282 0.810611 7.62522 0.825494 7.62522 0.83839V7.61909H4.0719C4.17913 4.09629 5.73187 1.14794 7.6282 0.797715ZM7.62522 8.38095V15.1617C7.62522 15.1745 7.6282 15.1894 7.6282 15.2023C5.72984 14.8521 4.17706 11.9038 4.07284 8.38099L7.62522 8.38095ZM8.38476 15.2023C8.38476 15.1894 8.38774 15.1745 8.38774 15.1616V8.38091H11.9411C11.8338 11.9037 10.2811 14.8521 8.38476 15.2023ZM8.38774 7.61905V0.838349C8.38774 0.825453 8.38476 0.81057 8.38476 0.797674C10.2831 1.14787 11.8359 4.09621 11.9401 7.61901L8.38774 7.61905ZM5.48256 1.21625C4.22164 2.55751 3.38069 4.88889 3.30919 7.61905H0.772427C0.925327 4.68064 2.84161 2.19937 5.48256 1.21625ZM0.772504 8.38095H3.30926C3.38075 11.1111 4.22169 13.4425 5.48263 14.7837C2.84154 13.8006 0.925261 11.3194 0.772504 8.38095ZM10.5304 14.7837C11.7913 13.4425 12.6323 11.1111 12.7038 8.38095H15.2405C15.0876 11.3194 13.1713 13.8006 10.5304 14.7837Z" fill="white"/>
</svg>
